<svg width="17" height="17" viewBox="0 0 17 17" fill="none" xmlns="http://www.w3.org/2000/svg">
<path d="M8.67567 14.7553H2.78807C2.42687 14.7553 2.13397 14.4611 2.13397 14.099V2.2846C2.13397 1.92219 2.42718 1.62831 2.78807 1.62831H8.67567C9.03749 1.62831 9.32978 1.33505 9.32978 0.972027C9.32978 0.609 9.03749 0.31543 8.67567 0.31543H2.78807C1.70599 0.31543 0.825439 1.19892 0.825439 2.2846V14.099C0.825439 15.1847 1.70599 16.0682 2.78807 16.0682H8.67567C9.03749 16.0682 9.32978 15.7749 9.32978 15.4119C9.32978 15.0489 9.03749 14.7553 8.67567 14.7553Z" fill="#012757"/>
<path d="M16.3832 7.72488L12.4059 3.78684C12.1496 3.53217 11.7346 3.53556 11.4807 3.79332C11.2269 4.05108 11.2294 4.46659 11.4872 4.72126L14.3298 7.53565H6.71307C6.35125 7.53565 6.05896 7.82891 6.05896 8.19194C6.05896 8.55496 6.35125 8.84822 6.71307 8.84822H14.3298L11.4872 11.6626C11.2294 11.9173 11.2275 12.3328 11.4807 12.5909C11.609 12.7208 11.7776 12.7866 11.9466 12.7866C12.1127 12.7866 12.2788 12.7236 12.4059 12.5976L16.3835 8.65961C16.5078 8.53613 16.5785 8.3682 16.5785 8.19224C16.5782 8.01629 16.5084 7.84897 16.3832 7.72488Z" fill="#012757"/>
</svg>
