<svg width="19" height="19" viewBox="0 0 19 19" fill="none" xmlns="http://www.w3.org/2000/svg">
<path d="M9.40652 9.24076C10.6306 9.24076 11.8046 8.75449 12.6702 7.88891C13.5357 7.02334 14.022 5.84937 14.022 4.62526C14.022 3.40116 13.5357 2.22719 12.6702 1.36161C11.8046 0.49604 10.6306 0.00976563 9.40652 0.00976562C8.18241 0.00976563 7.00844 0.49604 6.14287 1.36161C5.27729 2.22719 4.79102 3.40116 4.79102 4.62526C4.79102 5.84937 5.27729 7.02334 6.14287 7.88891C7.00844 8.75449 8.18241 9.24076 9.40652 9.24076ZM12.4835 4.62526C12.4835 5.44133 12.1593 6.22398 11.5823 6.80103C11.0052 7.37808 10.2226 7.70226 9.40652 7.70226C8.59045 7.70226 7.8078 7.37808 7.23075 6.80103C6.6537 6.22398 6.32952 5.44133 6.32952 4.62526C6.32952 3.80919 6.6537 3.02655 7.23075 2.4495C7.8078 1.87245 8.59045 1.54826 9.40652 1.54826C10.2226 1.54826 11.0052 1.87245 11.5823 2.4495C12.1593 3.02655 12.4835 3.80919 12.4835 4.62526ZM18.6375 16.9333C18.6375 18.4718 17.099 18.4718 17.099 18.4718H1.71402C1.71402 18.4718 0.175522 18.4718 0.175522 16.9333C0.175522 15.3948 1.71402 10.7793 9.40652 10.7793C17.099 10.7793 18.6375 15.3948 18.6375 16.9333ZM17.099 16.9271C17.0975 16.5486 16.8621 15.4101 15.819 14.367C14.8159 13.3639 12.9281 12.3178 9.40652 12.3178C5.88335 12.3178 3.99715 13.3639 2.99405 14.367C1.95095 15.4101 1.7171 16.5486 1.71402 16.9271H17.099Z" fill="#012757"/>
</svg>
