<svg width="20" height="20" viewBox="0 0 20 20" fill="none" xmlns="http://www.w3.org/2000/svg">
<path d="M11.224 19.4694H9.51832C8.94191 19.4694 8.45544 19.0375 8.38691 18.4643L8.20489 17.0359C7.84155 16.9178 7.49142 16.7725 7.15877 16.6026L6.02129 17.4867C5.5598 17.844 4.91022 17.8026 4.50976 17.3907L3.31054 16.1915C2.90152 15.795 2.86047 15.1454 3.21774 14.6846L4.10181 13.5464C3.93121 13.2138 3.78595 12.8633 3.66852 12.5003L2.23694 12.3183C1.66624 12.248 1.23438 11.7615 1.23438 11.1851V9.47938C1.23438 8.90296 1.66624 8.41649 2.23944 8.34796L3.66781 8.16594C3.78595 7.8026 3.93121 7.45247 4.1011 7.11982L3.21774 5.98234C2.85976 5.52085 2.90187 4.87056 3.31446 4.4701L4.51369 3.27087C4.91022 2.86185 5.56052 2.82152 6.02058 3.17808L7.15806 4.06286C7.4907 3.89297 7.84119 3.74771 8.20489 3.62957L8.38691 2.19799C8.45544 1.62693 8.94191 1.19507 9.51832 1.19507H11.224C11.8004 1.19507 12.2869 1.62693 12.3554 2.20014L12.5375 3.6285C12.9015 3.74664 13.2516 3.8919 13.5843 4.06179L14.7218 3.17772C15.184 2.82045 15.8328 2.86185 16.2333 3.27444L17.4325 4.47367C17.8415 4.8702 17.8826 5.51978 17.5253 5.98056L16.6412 7.11875C16.8118 7.4514 16.9571 7.80189 17.0745 8.16487L18.5061 8.34689C19.0765 8.41613 19.508 8.9026 19.508 9.47902V11.1847C19.508 11.7611 19.0761 12.2476 18.5029 12.3161L17.0745 12.4981C16.9564 12.8615 16.8111 13.2116 16.6412 13.5443L17.5253 14.6817C17.8833 15.1432 17.8412 15.7928 17.4286 16.1933L16.2294 17.3925C15.8328 17.8015 15.1825 17.8433 14.7225 17.4853L13.5843 16.6012C13.2516 16.7718 12.9011 16.9171 12.5382 17.0345L12.3561 18.4661C12.2869 19.0375 11.8004 19.4694 11.224 19.4694ZM7.12023 15.7689C7.1834 15.7689 7.248 15.785 7.30618 15.8167C7.72555 16.0512 8.18026 16.24 8.65709 16.3771C8.80343 16.4188 8.9105 16.5438 8.92978 16.6947L9.14285 18.3697C9.16569 18.5607 9.33095 18.7077 9.51904 18.7077H11.2247C11.4128 18.7077 11.5781 18.5607 11.6002 18.3733L11.814 16.6951C11.8329 16.5445 11.9403 16.4196 12.0867 16.3774C12.5631 16.2404 13.0179 16.0516 13.4376 15.8171C13.5707 15.7425 13.7367 15.7553 13.8562 15.8492L15.1886 16.8846C15.3417 17.0035 15.5562 16.9935 15.6872 16.8586L16.8939 15.6518C17.0317 15.518 17.0424 15.3031 16.9236 15.1493L15.8882 13.8169C15.7946 13.6967 15.7814 13.5314 15.856 13.3983C16.0905 12.9789 16.2793 12.5242 16.4164 12.0474C16.4581 11.901 16.5831 11.794 16.734 11.7747L18.409 11.5616C18.6 11.5381 18.747 11.3728 18.747 11.1847V9.47902C18.747 9.29093 18.6 9.12568 18.4126 9.10355L16.7344 8.88976C16.5838 8.87084 16.4589 8.76341 16.4167 8.61707C16.2797 8.1406 16.0909 7.68589 15.8564 7.26616C15.7818 7.13303 15.7939 6.96778 15.8885 6.8475L16.9239 5.51514C17.0435 5.36131 17.0328 5.14645 16.8989 5.01725L15.6922 3.81053C15.5591 3.67204 15.3435 3.66134 15.1897 3.7809L13.8573 4.81631C13.7363 4.90982 13.5711 4.92302 13.4379 4.84843C13.02 4.61394 12.5653 4.42585 12.087 4.28808C11.9407 4.24632 11.8336 4.1214 11.8143 3.97042L11.6013 2.29543C11.5777 2.10341 11.4125 1.95672 11.2244 1.95672H9.51868C9.33059 1.95672 9.16534 2.10377 9.14321 2.29115L8.92942 3.96935C8.9105 4.11997 8.80307 4.24489 8.65674 4.28772C8.17847 4.42477 7.72412 4.61358 7.30582 4.84736C7.17269 4.92267 7.00744 4.90911 6.88645 4.81631L5.55409 3.7809C5.40026 3.66134 5.18647 3.67204 5.0562 3.80589L3.84948 5.01332C3.71171 5.14717 3.701 5.36203 3.81985 5.51586L4.85526 6.84821C4.94877 6.96849 4.96197 7.13374 4.88738 7.26687C4.65217 7.68625 4.46408 8.14095 4.32703 8.61779C4.28527 8.76412 4.16035 8.8712 4.00937 8.89047L2.33438 9.10355C2.14343 9.12639 1.99638 9.29164 1.99638 9.47973V11.1854C1.99638 11.3735 2.14343 11.5388 2.33081 11.5609L4.00902 11.7747C4.15963 11.7936 4.28455 11.901 4.32667 12.0474C4.46372 12.5238 4.65253 12.9786 4.88702 13.3983C4.96162 13.5314 4.94948 13.6967 4.8549 13.8169L3.8195 15.1493C3.69993 15.3031 3.71064 15.518 3.84448 15.6472L5.0512 16.8539C5.18433 16.9917 5.39848 17.0024 5.55374 16.8835L6.88609 15.8481C6.95498 15.7964 7.03707 15.7689 7.12023 15.7689Z" fill="#012757" stroke="#012757" stroke-width="0.7"/>
<path d="M10.3716 14.1395C8.27222 14.1395 6.56439 12.4317 6.56439 10.3323C6.56439 8.23298 8.27222 6.52515 10.3716 6.52515C12.4709 6.52515 14.1788 8.23298 14.1788 10.3323C14.1788 12.4317 12.4709 14.1395 10.3716 14.1395ZM10.3716 7.2868C8.69195 7.2868 7.32604 8.6527 7.32604 10.3323C7.32604 12.012 8.69195 13.3779 10.3716 13.3779C12.0512 13.3779 13.4171 12.012 13.4171 10.3323C13.4171 8.6527 12.0512 7.2868 10.3716 7.2868Z" fill="#012757" stroke="#012757" stroke-width="0.7"/>
</svg>
