<svg width="54" height="43" viewBox="0 0 54 43" fill="none" xmlns="http://www.w3.org/2000/svg">
<path d="M45.9 0H8.1C5.95175 0 3.89148 0.84944 2.37244 2.36145C0.853391 3.87346 0 5.92419 0 8.0625V34.9375C0 37.0758 0.853391 39.1265 2.37244 40.6385C3.89148 42.1506 5.95175 43 8.1 43H45.9C48.0483 43 50.1085 42.1506 51.6276 40.6385C53.1466 39.1265 54 37.0758 54 34.9375V8.0625C54 5.92419 53.1466 3.87346 51.6276 2.36145C50.1085 0.84944 48.0483 0 45.9 0ZM44.793 5.375L28.917 21.1775C28.666 21.4294 28.3674 21.6293 28.0384 21.7658C27.7093 21.9022 27.3564 21.9725 27 21.9725C26.6436 21.9725 26.2907 21.9022 25.9616 21.7658C25.6326 21.6293 25.334 21.4294 25.083 21.1775L9.207 5.375H44.793ZM48.6 34.9375C48.6 35.6503 48.3155 36.3338 47.8092 36.8379C47.3028 37.3419 46.6161 37.625 45.9 37.625H8.1C7.38392 37.625 6.69716 37.3419 6.19081 36.8379C5.68446 36.3338 5.4 35.6503 5.4 34.9375V9.16437L21.276 24.9669C22.7948 26.4767 24.8535 27.3248 27 27.3248C29.1465 27.3248 31.2052 26.4767 32.724 24.9669L48.6 9.16437V34.9375Z" fill="#003D84"/>
</svg>
