<svg width="22" height="22" viewBox="0 0 22 22" fill="none" xmlns="http://www.w3.org/2000/svg">
<path d="M11.125 11.125C12.4677 11.125 13.7553 10.5916 14.7047 9.64223C15.6541 8.69282 16.1875 7.40516 16.1875 6.0625C16.1875 4.71984 15.6541 3.43217 14.7047 2.48277C13.7553 1.53337 12.4677 1 11.125 1C9.78234 1 8.49468 1.53337 7.54527 2.48277C6.59587 3.43217 6.0625 4.71984 6.0625 6.0625C6.0625 7.40516 6.59587 8.69282 7.54527 9.64223C8.49468 10.5916 9.78234 11.125 11.125 11.125ZM14.5 6.0625C14.5 6.95761 14.1444 7.81605 13.5115 8.44899C12.8785 9.08192 12.0201 9.4375 11.125 9.4375C10.2299 9.4375 9.37145 9.08192 8.73851 8.44899C8.10558 7.81605 7.75 6.95761 7.75 6.0625C7.75 5.16739 8.10558 4.30895 8.73851 3.67601C9.37145 3.04308 10.2299 2.6875 11.125 2.6875C12.0201 2.6875 12.8785 3.04308 13.5115 3.67601C14.1444 4.30895 14.5 5.16739 14.5 6.0625ZM21.25 19.5625C21.25 21.25 19.5625 21.25 19.5625 21.25H2.6875C2.6875 21.25 1 21.25 1 19.5625C1 17.875 2.6875 12.8125 11.125 12.8125C19.5625 12.8125 21.25 17.875 21.25 19.5625ZM19.5625 19.5557C19.5608 19.1406 19.3026 17.8919 18.1585 16.7477C17.0583 15.6475 14.9877 14.5 11.125 14.5C7.26062 14.5 5.19175 15.6475 4.0915 16.7477C2.94738 17.8919 2.69088 19.1406 2.6875 19.5557H19.5625Z" fill="#50C9E9" stroke="#4BBCDB" stroke-width="0.3"/>
</svg>
